<svg width="1419" height="974" viewBox="0 0 1419 974" fill="none" xmlns="http://www.w3.org/2000/svg">
<g style="mix-blend-mode:overlay">
<path d="M1048.52 48.1133L1048.87 51.1979L1049.81 50.7525L1049.36 51.6896L1051.9 52.0375L1049.36 52.3851L1049.81 53.3225L1048.87 52.8769L1048.52 55.9916L1048.18 52.8769L1047.24 53.3225L1047.68 52.3851L1045.3 52.0375L1047.68 51.6896L1047.24 50.7525L1048.18 51.1979L1048.52 48.1133Z" fill="white"/>
<path d="M1073.8 76.5L1074.26 80.6129L1075.51 80.019L1074.92 81.2685L1078.3 81.7323L1074.92 82.1958L1075.51 83.4456L1074.26 82.8515L1073.8 87.0044L1073.33 82.8515L1072.08 83.4456L1072.68 82.1958L1069.5 81.7323L1072.68 81.2685L1072.08 80.019L1073.33 80.6129L1073.8 76.5Z" fill="white"/>
<path d="M1064 83.2477C1064.4 83.2477 1064.73 82.9211 1064.73 82.5184C1064.73 82.1156 1064.4 81.7891 1064 81.7891C1063.59 81.7891 1063.27 82.1156 1063.27 82.5184C1063.27 82.9211 1063.59 83.2477 1064 83.2477Z" fill="white"/>
<path d="M1068.68 67.9321C1068.68 68.3721 1068.32 68.7285 1067.88 68.7285C1067.44 68.7285 1067.08 68.3721 1067.08 67.9321C1067.08 67.4921 1067.44 67.1357 1067.88 67.1357C1068.32 67.1357 1068.68 67.4921 1068.68 67.9321Z" fill="white"/>
<path d="M1015.45 37.5742L1016.14 43.7435L1018.02 42.8527L1017.13 44.727L1022.2 45.4227L1017.13 46.1179L1018.02 47.9927L1016.14 47.1014L1015.45 53.3308L1014.75 47.1014L1012.88 47.9927L1013.77 46.1179L1009 45.4227L1013.77 44.727L1012.88 42.8527L1014.75 43.7435L1015.45 37.5742Z" fill="white"/>
<path d="M1046.3 16L1046.76 20.1129L1048.01 19.519L1047.42 20.7685L1050.8 21.2323L1047.42 21.6958L1048.01 22.9456L1046.76 22.3515L1046.3 26.5044L1045.83 22.3515L1044.58 22.9456L1045.18 21.6958L1042 21.2323L1045.18 20.7685L1044.58 19.519L1045.83 20.1129L1046.3 16Z" fill="white"/>
<path d="M1042.85 25.3402C1042.85 25.7142 1042.54 26.0178 1042.17 26.0178C1041.8 26.0178 1041.49 25.7142 1041.49 25.3402C1041.49 24.9662 1041.8 24.6626 1042.17 24.6626C1042.55 24.6626 1042.85 24.9662 1042.85 25.3402Z" fill="white"/>
<path d="M1015.74 45.9276L1048.51 52.5518L1042.17 25.34L1046.8 20.9873L1067.88 67.932L1074.15 81.7887L1064 82.518" stroke="white" stroke-width="0.275" stroke-miterlimit="10"/>
</g>
<g style="mix-blend-mode:overlay">
<path d="M162.555 28.5316C162.555 29.0046 162.173 29.3874 161.7 29.3874C161.227 29.3874 160.844 29.0046 160.844 28.5316C160.844 28.0586 161.227 27.6758 161.7 27.6758C162.173 27.6758 162.555 28.0586 162.555 28.5316Z" fill="white"/>
<path d="M146.45 40.2256L146.682 42.282L147.307 41.9851L147.01 42.6098L148.701 42.8417L147.01 43.0735L147.307 43.6984L146.682 43.4013L146.45 45.4778L146.218 43.4013L145.593 43.6984L145.89 43.0735L144.301 42.8417L145.89 42.6098L145.593 41.9851L146.218 42.282L146.45 40.2256Z" fill="white"/>
<path d="M156.13 47.0918C156.13 47.6495 155.678 48.1016 155.12 48.1016C154.562 48.1016 154.11 47.6495 154.11 47.0918C154.11 46.5341 154.562 46.082 155.12 46.082C155.678 46.0809 156.13 46.5341 156.13 47.0918Z" fill="white"/>
<path d="M147.645 53.4597C147.645 53.9393 147.257 54.3276 146.777 54.3276C146.297 54.3276 145.909 53.9393 145.909 53.4597C145.909 52.9801 146.297 52.5918 146.777 52.5918C147.257 52.5918 147.645 52.9801 147.645 53.4597Z" fill="white"/>
<path d="M150.798 1.2998L151.262 5.41266L152.512 4.81879L151.918 6.0683L155.3 6.53211L151.918 6.99562L152.512 8.24543L151.262 7.65126L150.798 11.8042L150.335 7.65126L149.085 8.24543L149.679 6.99562L146.5 6.53211L149.679 6.0683L149.085 4.81879L150.335 5.41266L150.798 1.2998Z" fill="white"/>
<path d="M146.409 14.7593C146.685 14.7593 146.909 14.5352 146.909 14.2588C146.909 13.9824 146.685 13.7583 146.409 13.7583C146.132 13.7583 145.908 13.9824 145.908 14.2588C145.908 14.5352 146.132 14.7593 146.409 14.7593Z" fill="white"/>
<path d="M170.599 49.6997L171.063 53.8126L172.313 53.2187L171.718 54.4682L175.101 54.932L171.718 55.3955L172.313 56.6453L171.063 56.0512L170.599 60.2041L170.135 56.0512L168.886 56.6453L169.48 55.3955L166.301 54.932L169.48 54.4682L168.886 53.2187L170.135 53.8126L170.599 49.6997Z" fill="white"/>
<path d="M154.137 90.1694L154.426 92.74L155.208 92.3688L154.836 93.1497L156.95 93.4396L154.836 93.7293L155.208 94.5104L154.426 94.1391L154.137 96.7347L153.847 94.1391L153.066 94.5104L153.437 93.7293L151.45 93.4396L153.437 93.1497L153.066 92.3688L153.847 92.74L154.137 90.1694Z" fill="white"/>
<path d="M151.192 5.67773L146.409 14.2588L161.7 28.5313L145.908 42.8522L146.776 53.4595L155.12 47.0916L170.451 54.7619L153.829 93.9857" stroke="white" stroke-width="0.275" stroke-miterlimit="10"/>
</g>
<g style="mix-blend-mode:overlay">
<path d="M122.568 913.593C122.568 914.473 121.856 915.186 120.976 915.186C120.096 915.186 119.383 914.473 119.383 913.593C119.383 912.713 120.096 912 120.976 912C121.856 912 122.568 912.713 122.568 913.593Z" fill="white"/>
<path d="M147.573 927.326L148.153 932.467L149.715 931.724L148.972 933.286L153.2 933.866L148.972 934.445L149.715 936.008L148.153 935.265L147.573 940.456L146.993 935.265L145.431 936.008L146.174 934.445L142.2 933.866L146.174 933.286L145.431 931.724L146.993 932.467L147.573 927.326Z" fill="white"/>
<path d="M99.2238 931.052L99.5715 934.136L100.509 933.691L100.063 934.628L102.6 934.976L100.063 935.324L100.509 936.261L99.5715 935.815L99.2238 938.93L98.876 935.815L97.9386 936.261L98.3843 935.324L96 934.976L98.3843 934.628L97.9386 933.691L98.876 934.136L99.2238 931.052Z" fill="white"/>
<path d="M147.262 933.707L98.9688 935.143L120.974 913.592" stroke="white" stroke-width="0.275" stroke-miterlimit="10"/>
</g>
<g style="mix-blend-mode:overlay">
<path d="M647.922 941.179L648.153 943.236L648.778 942.939L648.481 943.563L650.172 943.795L648.481 944.027L648.778 944.652L648.153 944.355L647.922 946.431L647.69 944.355L647.065 944.652L647.362 944.027L645.772 943.795L647.362 943.563L647.065 942.939L647.69 943.236L647.922 941.179Z" fill="white"/>
<path d="M622.596 943.166L622.944 946.251L623.881 945.805L623.435 946.742L625.972 947.09L623.435 947.438L623.881 948.375L622.944 947.93L622.596 951.044L622.248 947.93L621.311 948.375L621.756 947.438L619.372 947.09L621.756 946.742L621.311 945.805L622.248 946.251L622.596 943.166Z" fill="white"/>
<path d="M618.07 924.348C618.07 924.927 617.602 925.396 617.022 925.396C616.443 925.396 615.974 924.928 615.974 924.348C615.974 923.77 616.443 923.3 617.022 923.3C617.602 923.3 618.07 923.77 618.07 924.348Z" fill="white"/>
<path d="M597.007 932.336C597.007 932.862 596.58 933.289 596.053 933.289C595.526 933.289 595.1 932.862 595.1 932.336C595.1 931.809 595.526 931.382 596.053 931.382C596.58 931.381 597.007 931.809 597.007 932.336Z" fill="white"/>
<path d="M600.622 923.579L600.854 925.636L601.479 925.339L601.181 925.963L602.873 926.195L601.181 926.427L601.479 927.052L600.854 926.755L600.622 928.831L600.39 926.755L599.765 927.052L600.062 926.427L598.473 926.195L600.062 925.963L599.765 925.339L600.39 925.636L600.622 923.579Z" fill="white"/>
<path d="M648.471 944.002L621.926 946.524L617.022 924.348L601.005 926.363L596.054 932.335" stroke="white" stroke-width="0.275" stroke-miterlimit="10"/>
</g>
<g style="mix-blend-mode:overlay">
<path d="M71.5483 308.301L72.2435 314.47L74.1182 313.579L73.227 315.454L78.3006 316.149L73.227 316.845L74.1182 318.719L72.2435 317.828L71.5483 324.057L70.8525 317.828L68.9778 318.719L69.8691 316.845L65.1006 316.149L69.8691 315.454L68.9778 313.579L70.8525 314.47L71.5483 308.301Z" fill="white"/>
<path d="M55.7146 309.848C55.7146 310.979 54.7972 311.896 53.6664 311.896C52.5356 311.896 51.6182 310.979 51.6182 309.848C51.6182 308.716 52.5356 307.8 53.6664 307.8C54.7972 307.799 55.7146 308.716 55.7146 309.848Z" fill="white"/>
<path d="M5.78514 351.554C6.4291 351.554 6.95114 351.032 6.95114 350.388C6.95114 349.744 6.4291 349.222 5.78514 349.222C5.14117 349.222 4.61914 349.744 4.61914 350.388C4.61914 351.032 5.14117 351.554 5.78514 351.554Z" fill="white"/>
<path d="M3.42403 319.94L3.77167 323.025L4.70902 322.579L4.26339 323.516L6.8002 323.864L4.26339 324.212L4.70902 325.149L3.77167 324.704L3.42403 327.818L3.07617 324.704L2.13882 325.149L2.58445 324.212L0.200195 323.864L2.58445 323.516L2.13882 322.579L3.07617 323.025L3.42403 319.94Z" fill="white"/>
<path d="M71.0772 315.309L53.6653 309.848L2.98828 323.54L5.78447 350.388" stroke="white" stroke-width="0.275" stroke-miterlimit="10"/>
</g>
<g style="mix-blend-mode:overlay">
<path d="M1411.55 638.301L1412.24 644.47L1414.12 643.579L1413.23 645.454L1418.3 646.149L1413.23 646.845L1414.12 648.719L1412.24 647.828L1411.55 654.057L1410.85 647.828L1408.98 648.719L1409.87 646.845L1405.1 646.149L1409.87 645.454L1408.98 643.579L1410.85 644.47L1411.55 638.301Z" fill="white"/>
<path d="M1395.71 639.848C1395.71 640.979 1394.8 641.896 1393.67 641.896C1392.53 641.896 1391.62 640.979 1391.62 639.848C1391.62 638.716 1392.53 637.8 1393.67 637.8C1394.8 637.799 1395.71 638.716 1395.71 639.848Z" fill="white"/>
<path d="M1345.78 681.554C1346.43 681.554 1346.95 681.032 1346.95 680.388C1346.95 679.744 1346.43 679.222 1345.78 679.222C1345.14 679.222 1344.62 679.744 1344.62 680.388C1344.62 681.032 1345.14 681.554 1345.78 681.554Z" fill="white"/>
<path d="M1343.42 649.94L1343.77 653.025L1344.71 652.579L1344.26 653.516L1346.8 653.864L1344.26 654.212L1344.71 655.149L1343.77 654.704L1343.42 657.818L1343.08 654.704L1342.14 655.149L1342.58 654.212L1340.2 653.864L1342.58 653.516L1342.14 652.579L1343.08 653.025L1343.42 649.94Z" fill="white"/>
<path d="M1411.08 645.309L1393.66 639.848L1342.99 653.54L1345.78 680.388" stroke="white" stroke-width="0.275" stroke-miterlimit="10"/>
</g>
<g style="mix-blend-mode:overlay">
<path d="M1407.92 318.179L1408.15 320.236L1408.78 319.939L1408.48 320.563L1410.17 320.795L1408.48 321.027L1408.78 321.652L1408.15 321.355L1407.92 323.431L1407.69 321.355L1407.06 321.652L1407.36 321.027L1405.77 320.795L1407.36 320.563L1407.06 319.939L1407.69 320.236L1407.92 318.179Z" fill="white"/>
<path d="M1382.6 320.166L1382.94 323.251L1383.88 322.805L1383.44 323.742L1385.97 324.09L1383.44 324.438L1383.88 325.375L1382.94 324.93L1382.6 328.044L1382.25 324.93L1381.31 325.375L1381.76 324.438L1379.37 324.09L1381.76 323.742L1381.31 322.805L1382.25 323.251L1382.6 320.166Z" fill="white"/>
<path d="M1378.07 301.348C1378.07 301.927 1377.6 302.396 1377.02 302.396C1376.44 302.396 1375.97 301.928 1375.97 301.348C1375.97 300.77 1376.44 300.3 1377.02 300.3C1377.6 300.3 1378.07 300.77 1378.07 301.348Z" fill="white"/>
<path d="M1357.01 309.336C1357.01 309.862 1356.58 310.289 1356.05 310.289C1355.53 310.289 1355.1 309.862 1355.1 309.336C1355.1 308.809 1355.53 308.382 1356.05 308.382C1356.58 308.381 1357.01 308.809 1357.01 309.336Z" fill="white"/>
<path d="M1360.62 300.579L1360.85 302.636L1361.48 302.339L1361.18 302.963L1362.87 303.195L1361.18 303.427L1361.48 304.052L1360.85 303.755L1360.62 305.831L1360.39 303.755L1359.77 304.052L1360.06 303.427L1358.47 303.195L1360.06 302.963L1359.77 302.339L1360.39 302.636L1360.62 300.579Z" fill="white"/>
<path d="M1408.47 321.002L1381.93 323.524L1377.02 301.348L1361 303.363L1356.05 309.335" stroke="white" stroke-width="0.275" stroke-miterlimit="10"/>
</g>
<g style="mix-blend-mode:overlay">
<path d="M1227.92 18.1792L1228.15 20.2356L1228.78 19.9387L1228.48 20.5634L1230.17 20.7954L1228.48 21.0271L1228.78 21.652L1228.15 21.3549L1227.92 23.4314L1227.69 21.3549L1227.06 21.652L1227.36 21.0271L1225.77 20.7954L1227.36 20.5634L1227.06 19.9387L1227.69 20.2356L1227.92 18.1792Z" fill="white"/>
<path d="M1202.6 20.166L1202.94 23.2507L1203.88 22.8053L1203.44 23.7424L1205.97 24.0902L1203.44 24.4379L1203.88 25.3752L1202.94 24.9296L1202.6 28.0443L1202.25 24.9296L1201.31 25.3752L1201.76 24.4379L1199.37 24.0902L1201.76 23.7424L1201.31 22.8053L1202.25 23.2507L1202.6 20.166Z" fill="white"/>
<path d="M1198.07 1.34811C1198.07 1.92671 1197.6 2.39639 1197.02 2.39639C1196.44 2.39639 1195.97 1.92781 1195.97 1.34811C1195.97 0.769508 1196.44 0.299805 1197.02 0.299805C1197.6 0.299805 1198.07 0.769508 1198.07 1.34811Z" fill="white"/>
<path d="M1177.01 9.33554C1177.01 9.86244 1176.58 10.2892 1176.05 10.2892C1175.53 10.2892 1175.1 9.86244 1175.1 9.33554C1175.1 8.80864 1175.53 8.38184 1176.05 8.38184C1176.58 8.38074 1177.01 8.80864 1177.01 9.33554Z" fill="white"/>
<path d="M1180.62 0.579102L1180.85 2.63553L1181.48 2.33859L1181.18 2.96335L1182.87 3.19526L1181.18 3.42701L1181.48 4.05191L1180.85 3.75483L1180.62 5.8313L1180.39 3.75483L1179.77 4.05191L1180.06 3.42701L1178.47 3.19526L1180.06 2.96335L1179.77 2.33859L1180.39 2.63553L1180.62 0.579102Z" fill="white"/>
<path d="M1228.47 21.0018L1201.93 23.5241L1197.02 1.34814L1181 3.36335L1176.05 9.33525" stroke="white" stroke-width="0.275" stroke-miterlimit="10"/>
</g>
<g style="mix-blend-mode:overlay">
<path d="M57.9217 558.179L58.1534 560.236L58.7783 559.939L58.4813 560.563L60.1725 560.795L58.4813 561.027L58.7783 561.652L58.1534 561.355L57.9217 563.431L57.6898 561.355L57.0649 561.652L57.362 561.027L55.7725 560.795L57.362 560.563L57.0649 559.939L57.6898 560.236L57.9217 558.179Z" fill="white"/>
<path d="M32.5959 560.166L32.9435 563.251L33.8809 562.805L33.4353 563.742L35.9721 564.09L33.4353 564.438L33.8809 565.375L32.9435 564.93L32.5959 568.044L32.248 564.93L31.3107 565.375L31.7563 564.438L29.3721 564.09L31.7563 563.742L31.3107 562.805L32.248 563.251L32.5959 560.166Z" fill="white"/>
<path d="M28.0702 541.348C28.0702 541.927 27.6016 542.396 27.0219 542.396C26.4433 542.396 25.9736 541.928 25.9736 541.348C25.9736 540.77 26.4433 540.3 27.0219 540.3C27.6016 540.3 28.0702 540.77 28.0702 541.348Z" fill="white"/>
<path d="M7.007 549.336C7.007 549.862 6.5802 550.289 6.0533 550.289C5.5264 550.289 5.09961 549.862 5.09961 549.336C5.09961 548.809 5.5264 548.382 6.0533 548.382C6.5802 548.381 7.007 548.809 7.007 549.336Z" fill="white"/>
<path d="M10.6219 540.579L10.8536 542.636L11.4785 542.339L11.1815 542.963L12.8727 543.195L11.1815 543.427L11.4785 544.052L10.8536 543.755L10.6219 545.831L10.39 543.755L9.76507 544.052L10.0622 543.427L8.47266 543.195L10.0622 542.963L9.76507 542.339L10.39 542.636L10.6219 540.579Z" fill="white"/>
<path d="M58.4709 561.002L31.9257 563.524L27.0219 541.348L11.0048 543.363L6.05371 549.335" stroke="white" stroke-width="0.275" stroke-miterlimit="10"/>
</g>
<g style="mix-blend-mode:overlay">
<path d="M1035.28 939.372C1035.28 939.93 1034.83 940.382 1034.27 940.382C1033.71 940.382 1033.26 939.93 1033.26 939.372C1033.26 938.814 1033.71 938.362 1034.27 938.362C1034.83 938.362 1035.28 938.814 1035.28 939.372Z" fill="white"/>
<path d="M1025.1 964.5C1025.55 964.5 1025.91 964.135 1025.91 963.685C1025.91 963.235 1025.55 962.87 1025.1 962.87C1024.65 962.87 1024.28 963.235 1024.28 963.685C1024.28 964.135 1024.65 964.5 1025.1 964.5Z" fill="white"/>
<path d="M1038.52 954.3L1038.87 957.384L1039.81 956.939L1039.36 957.876L1041.9 958.224L1039.36 958.572L1039.81 959.509L1038.87 959.063L1038.52 962.178L1038.18 959.063L1037.24 959.509L1037.68 958.572L1035.3 958.224L1037.68 957.876L1037.24 956.939L1038.18 957.384L1038.52 954.3Z" fill="white"/>
<path d="M1002.22 933.4L1002.57 936.485L1003.51 936.039L1003.06 936.976L1005.6 937.324L1003.06 937.672L1003.51 938.609L1002.57 938.163L1002.22 941.278L1001.88 938.163L1000.94 938.609L1001.38 937.672L999 937.324L1001.38 936.976L1000.94 936.039L1001.88 936.485L1002.22 933.4Z" fill="white"/>
<path d="M1061.62 918L1061.97 921.085L1062.91 920.639L1062.46 921.576L1065 921.924L1062.46 922.272L1062.91 923.209L1061.97 922.764L1061.62 925.878L1061.28 922.764L1060.34 923.209L1060.78 922.272L1058.4 921.924L1060.78 921.576L1060.34 920.639L1061.28 921.085L1061.62 918Z" fill="white"/>
<path d="M1065.3 941.42C1065.3 941.993 1064.84 942.459 1064.26 942.459C1063.69 942.459 1063.23 941.993 1063.23 941.42C1063.23 940.847 1063.69 940.382 1064.26 940.382C1064.84 940.383 1065.3 940.847 1065.3 941.42Z" fill="white"/>
<path d="M1061.77 921.752L1034.27 939.372L1001.72 937.128L1025.1 963.685L1039.21 957.778" stroke="white" stroke-width="0.275" stroke-miterlimit="10"/>
<path d="M1064.26 941.42L1034.27 939.372" stroke="white" stroke-width="0.275" stroke-miterlimit="10"/>
</g>
<g style="mix-blend-mode:overlay">
<path d="M1319.35 917.501L1320.04 923.67L1321.92 922.779L1321.03 924.654L1326.1 925.349L1321.03 926.045L1321.92 927.919L1320.04 927.028L1319.35 933.258L1318.65 927.028L1316.78 927.919L1317.67 926.045L1312.9 925.349L1317.67 924.654L1316.78 922.779L1318.65 923.67L1319.35 917.501Z" fill="white"/>
<path d="M1303.51 919.048C1303.51 920.179 1302.6 921.096 1301.47 921.096C1300.34 921.096 1299.42 920.179 1299.42 919.048C1299.42 917.916 1300.34 917 1301.47 917C1302.6 916.999 1303.51 917.916 1303.51 919.048Z" fill="white"/>
<path d="M1253.58 960.754C1254.23 960.754 1254.75 960.232 1254.75 959.588C1254.75 958.944 1254.23 958.422 1253.58 958.422C1252.94 958.422 1252.42 958.944 1252.42 959.588C1252.42 960.232 1252.94 960.754 1253.58 960.754Z" fill="white"/>
<path d="M1251.22 929.14L1251.57 932.225L1252.51 931.779L1252.06 932.717L1254.6 933.064L1252.06 933.412L1252.51 934.349L1251.57 933.904L1251.22 937.018L1250.88 933.904L1249.94 934.349L1250.38 933.412L1248 933.064L1250.38 932.717L1249.94 931.779L1250.88 932.225L1251.22 929.14Z" fill="white"/>
<path d="M1318.88 924.509L1301.46 919.048L1250.79 932.741L1253.58 959.588" stroke="white" stroke-width="0.275" stroke-miterlimit="10"/>
</g>
<g style="mix-blend-mode:overlay">
<path d="M1309.3 92.2261L1309.76 96.3389L1311.01 95.7451L1310.42 96.9946L1313.8 97.4584L1310.42 97.9219L1311.01 99.1717L1309.76 98.5775L1309.3 102.73L1308.83 98.5775L1307.58 99.1717L1308.18 97.9219L1305 97.4584L1308.18 96.9946L1307.58 95.7451L1308.83 96.3389L1309.3 92.2261Z" fill="white"/>
<path d="M1341.22 74.8384L1341.57 77.923L1342.51 77.4776L1342.06 78.4147L1344.6 78.7626L1342.06 79.1102L1342.51 80.0476L1341.57 79.602L1341.22 82.7167L1340.88 79.602L1339.94 80.0476L1340.38 79.1102L1338 78.7626L1340.38 78.4147L1339.94 77.4776L1340.88 77.923L1341.22 74.8384Z" fill="white"/>
<path d="M1330.05 77.9443C1330.05 78.3843 1329.69 78.7407 1329.25 78.7407C1328.81 78.7407 1328.46 78.3843 1328.46 77.9443C1328.46 77.5043 1328.81 77.1479 1329.25 77.1479C1329.69 77.1479 1330.05 77.5043 1330.05 77.9443Z" fill="white"/>
<path d="M1345.55 39L1346.24 45.1693L1348.12 44.2785L1347.23 46.1527L1352.3 46.8485L1347.23 47.5437L1348.12 49.4184L1346.24 48.5272L1345.55 54.7566L1344.85 48.5272L1342.98 49.4184L1343.87 47.5437L1339.1 46.8485L1343.87 46.1527L1342.98 44.2785L1344.85 45.1693L1345.55 39Z" fill="white"/>
<path d="M1346.21 46.1958L1341.88 78.7426L1329.25 77.9451L1309 97.2908" stroke="white" stroke-width="0.275" stroke-miterlimit="10"/>
</g>
<g style="mix-blend-mode:overlay">
<path d="M403.424 891L403.772 894.085L404.709 893.639L404.263 894.576L406.8 894.924L404.263 895.272L404.709 896.209L403.772 895.764L403.424 898.878L403.076 895.764L402.139 896.209L402.584 895.272L400.2 894.924L402.584 894.576L402.139 893.639L403.076 894.085L403.424 891Z" fill="white"/>
<path d="M412.199 940.287L412.662 944.399L413.912 943.806L413.318 945.055L416.7 945.519L413.318 945.982L413.912 947.232L412.662 946.638L412.199 950.791L411.735 946.638L410.485 947.232L411.079 945.982L407.9 945.519L411.079 945.055L410.485 943.806L411.735 944.399L412.199 940.287Z" fill="white"/>
<path d="M401.515 944.957C401.515 945.712 400.904 946.322 400.15 946.322C399.396 946.322 398.784 945.711 398.784 944.957C398.784 944.204 399.396 943.592 400.15 943.592C400.905 943.592 401.515 944.204 401.515 944.957Z" fill="white"/>
<path d="M402.995 924.758C402.995 925.166 403.326 925.497 403.734 925.497C404.142 925.497 404.474 925.166 404.474 924.758C404.474 924.35 404.142 924.018 403.734 924.018C403.326 924.019 402.995 924.35 402.995 924.758Z" fill="white"/>
<path d="M370.373 923.574L370.952 928.715L372.515 927.972L371.772 929.534L376 930.114L371.772 930.694L372.515 932.256L370.952 931.513L370.373 936.704L369.793 931.513L368.231 932.256L368.974 930.694L365 930.114L368.974 929.534L368.231 927.972L369.793 928.715L370.373 923.574Z" fill="white"/>
<path d="M371.524 965.8L371.871 968.884L372.809 968.439L372.363 969.376L374.9 969.724L372.363 970.072L372.809 971.009L371.871 970.563L371.524 973.678L371.176 970.563L370.238 971.009L370.684 970.072L368.3 969.724L370.684 969.376L370.238 968.439L371.176 968.884L371.524 965.8Z" fill="white"/>
<path d="M402.995 895.456L369.888 930.172L403.736 924.758L400.151 944.958L412.1 945.528L371.143 970.339" stroke="white" stroke-width="0.275" stroke-miterlimit="10"/>
</g>
<g style="mix-blend-mode:overlay">
<path d="M335.525 84.1133L335.872 87.1979L336.81 86.7525L336.364 87.6896L338.901 88.0375L336.364 88.3851L336.81 89.3225L335.872 88.8769L335.525 91.9916L335.177 88.8769L334.239 89.3225L334.685 88.3851L332.301 88.0375L334.685 87.6896L334.239 86.7525L335.177 87.1979L335.525 84.1133Z" fill="white"/>
<path d="M360.798 112.5L361.262 116.613L362.512 116.019L361.918 117.268L365.3 117.732L361.918 118.196L362.512 119.446L361.262 118.851L360.798 123.004L360.335 118.851L359.085 119.446L359.679 118.196L356.5 117.732L359.679 117.268L359.085 116.019L360.335 116.613L360.798 112.5Z" fill="white"/>
<path d="M350.997 119.248C351.4 119.248 351.726 118.921 351.726 118.518C351.726 118.116 351.4 117.789 350.997 117.789C350.594 117.789 350.268 118.116 350.268 118.518C350.268 118.921 350.594 119.248 350.997 119.248Z" fill="white"/>
<path d="M355.676 103.932C355.676 104.372 355.319 104.729 354.879 104.729C354.439 104.729 354.083 104.372 354.083 103.932C354.083 103.492 354.439 103.136 354.879 103.136C355.319 103.136 355.676 103.492 355.676 103.932Z" fill="white"/>
<path d="M302.448 73.5742L303.143 79.7435L305.018 78.8527L304.126 80.727L309.2 81.4227L304.126 82.1179L305.018 83.9927L303.143 83.1014L302.448 89.3308L301.752 83.1014L299.877 83.9927L300.769 82.1179L296 81.4227L300.769 80.727L299.877 78.8527L301.752 79.7435L302.448 73.5742Z" fill="white"/>
<path d="M333.298 52L333.762 56.1129L335.012 55.519L334.418 56.7685L337.8 57.2323L334.418 57.6958L335.012 58.9456L333.762 58.3515L333.298 62.5044L332.835 58.3515L331.585 58.9456L332.179 57.6958L329 57.2323L332.179 56.7685L331.585 55.519L332.835 56.1129L333.298 52Z" fill="white"/>
<path d="M329.848 61.3402C329.848 61.7142 329.545 62.0178 329.171 62.0178C328.797 62.0178 328.493 61.7142 328.493 61.3402C328.493 60.9662 328.797 60.6626 329.171 60.6626C329.546 60.6626 329.848 60.9662 329.848 61.3402Z" fill="white"/>
<path d="M302.74 81.9276L335.509 88.5518L329.172 61.34L333.798 56.9873L354.88 103.932L361.154 117.789L350.997 118.518" stroke="white" stroke-width="0.275" stroke-miterlimit="10"/>
</g>
</svg>
